<svg width="32" height="32" viewBox="0 0 32 32" fill="none" xmlns="http://www.w3.org/2000/svg">
<g clip-path="url(#clip0_541_237)">
<path d="M25.536 0H6.464C2.892 0 0 2.892 0 6.464V25.54C0 29.108 2.892 32 6.464 32H25.54C29.108 32 32.004 29.108 32.004 25.536V6.464C32 2.892 29.108 0 25.536 0Z" fill="#050505"/>
<path d="M15.8637 7.35245L16.5117 6.23245C16.9117 5.53245 17.8037 5.29645 18.5037 5.69645C19.2037 6.09645 19.4397 6.98845 19.0397 7.68845L12.7957 18.4964H17.3117C18.7757 18.4964 19.5957 20.2164 18.9597 21.4084H5.71967C4.91167 21.4084 4.26367 20.7604 4.26367 19.9524C4.26367 19.1444 4.91167 18.4964 5.71967 18.4964H9.43167L14.1837 10.2604L12.6997 7.68445C12.2997 6.98445 12.5357 6.10045 13.2357 5.69245C13.9357 5.29245 14.8197 5.52845 15.2277 6.22845L15.8637 7.35245ZM10.2477 22.9084L8.84767 25.3364C8.44767 26.0364 7.55567 26.2724 6.85567 25.8724C6.15567 25.4724 5.91967 24.5804 6.31967 23.8804L7.35967 22.0804C8.53567 21.7164 9.49167 21.9964 10.2477 22.9084ZM22.3037 18.5044H26.0917C26.8997 18.5044 27.5477 19.1524 27.5477 19.9604C27.5477 20.7684 26.8997 21.4164 26.0917 21.4164H23.9877L25.4077 23.8804C25.8077 24.5804 25.5717 25.4644 24.8717 25.8724C24.1717 26.2724 23.2877 26.0364 22.8797 25.3364C20.4877 21.1884 18.6917 18.0844 17.4997 16.0164C16.2797 13.9124 17.1517 11.8004 18.0117 11.0844C18.9677 12.7244 20.3957 15.2004 22.3037 18.5044Z" fill="white"/>
</g>
<defs>
<clipPath id="clip0_541_237">
<rect width="32" height="32" fill="white"/>
</clipPath>
</defs>
</svg>
