<svg width="520" height="108" viewBox="0 0 520 108" fill="none" xmlns="http://www.w3.org/2000/svg">
<g filter="url(#filter0_b_582_212)">
<path d="M281.424 7.33941H299.443V102.83L238.576 46.7263V99.9355H220.557V4.68691L281.424 60.873V7.33941ZM192.067 53.7997C192.067 81.3679 169.423 103.797 141.588 103.797C113.746 103.797 91.1016 81.3679 91.1016 53.7997C91.1016 26.2314 113.746 3.80273 141.588 3.80273C169.423 3.80273 192.067 26.2314 192.067 53.7997ZM173.566 53.7997C173.566 36.1163 159.196 21.7279 141.504 21.7279C123.812 21.7279 109.526 36.1163 109.526 53.7997C109.526 71.483 123.89 85.8715 141.504 85.8715C159.196 85.8715 173.56 71.483 173.56 53.7997H173.566ZM60.3437 54.6012C55.5514 50.9818 49.2238 48.0939 39.8898 45.117C21.6265 39.3285 21.6265 34.8314 21.6265 32.5796C21.6265 27.4336 27.3888 22.1286 37.1275 22.1286C45.3245 22.1286 51.6585 26.1487 54.0097 27.917L55.3073 28.8839L69.8383 19.1517L68.213 17.307C67.7312 16.7409 56.5279 3.80273 37.0504 3.80273C27.71 3.80273 19.1147 6.77965 12.8642 12.161C6.61371 17.5487 3.04199 24.9465 3.04199 32.6559C3.04199 40.8615 6.69721 47.7695 13.8342 53.1572C18.6265 56.7702 24.9541 59.6644 34.2881 62.635C52.5515 68.3471 52.5514 72.927 52.5514 75.1787C52.5514 80.3248 46.7891 85.6298 37.0504 85.6298C28.8534 85.6298 22.5194 81.6096 20.1682 79.8413L18.8706 78.8745L4.33961 88.6067L5.9649 90.4514C6.45312 91.0111 17.6565 103.873 37.0504 103.873C46.3845 103.873 54.9861 100.902 61.2366 95.5147C67.4871 90.1269 71.0525 82.6528 71.0525 75.0197C71.0525 66.8968 67.4871 60.0716 60.3437 54.6012ZM328.094 54.2006C328.094 26.6323 350.739 4.20365 378.58 4.20365C406.415 4.20365 429.06 26.6323 429.06 54.2006C429.06 81.7688 406.415 104.197 378.58 104.197C350.739 104.197 328.094 81.7688 328.094 54.2006ZM346.518 54.2006C346.518 71.884 360.882 86.2724 378.497 86.2724C396.188 86.2724 410.475 71.884 410.475 54.2006C410.475 36.5172 396.111 22.1224 378.497 22.1224C360.882 22.1224 346.518 36.5108 346.518 54.1942V54.2006ZM459.74 53.31C464.526 56.9357 470.854 59.8236 480.194 62.8005C498.451 68.589 498.451 73.0862 498.451 75.3379C498.451 80.4839 492.689 85.7889 482.95 85.7889C474.753 85.7889 468.426 81.7688 466.068 80.0005L464.77 79.04L450.246 88.7658L451.865 90.6105C452.353 91.1766 463.556 104.032 482.957 104.032C492.284 104.032 500.886 101.062 507.136 95.6738C513.387 90.2925 516.959 82.8947 516.959 75.1789C516.959 66.9797 513.303 60.0654 506.166 54.684C501.374 51.0646 495.047 48.1704 485.713 45.1998C467.449 39.4114 467.449 34.9079 467.449 32.6561C467.449 27.5164 473.212 22.2115 482.95 22.2115C491.147 22.2115 497.481 26.2316 499.832 27.9999L501.13 28.9604L515.661 19.2345L514.036 17.3898C513.548 16.8237 502.344 3.9683 482.95 3.9683C473.616 3.9683 465.015 6.93883 458.764 12.3202C452.513 17.7079 448.948 25.182 448.948 32.8215C449.025 41.0207 452.597 47.9287 459.74 53.3164V53.31Z" fill="#F1F1F1"/>
</g>
<defs>
<filter id="filter0_b_582_212" x="-26.958" y="-26.1973" width="573.917" height="160.395" filterUnits="userSpaceOnUse" color-interpolation-filters="sRGB">
<feFlood flood-opacity="0" result="BackgroundImageFix"/>
<feGaussianBlur in="BackgroundImageFix" stdDeviation="15"/>
<feComposite in2="SourceAlpha" operator="in" result="effect1_backgroundBlur_582_212"/>
<feBlend mode="normal" in="SourceGraphic" in2="effect1_backgroundBlur_582_212" result="shape"/>
</filter>
</defs>
</svg>
