<svg width="32" height="32" viewBox="0 0 32 32" fill="none" xmlns="http://www.w3.org/2000/svg">
<path d="M3 3.71803V28.2805C3.00016 28.3338 3.01606 28.3859 3.04569 28.4302C3.07532 28.4745 3.11737 28.509 3.16656 28.5295C3.21575 28.55 3.2699 28.5555 3.32222 28.5454C3.37453 28.5352 3.42268 28.5098 3.46062 28.4724L16.25 15.9999L3.46062 3.52616C3.42268 3.48874 3.37453 3.46336 3.32222 3.45321C3.2699 3.44305 3.21575 3.44856 3.16656 3.46905C3.11737 3.48954 3.07532 3.5241 3.04569 3.56839C3.01606 3.61269 3.00016 3.66474 3 3.71803Z" fill="#050505"/>
<path d="M21.6125 10.8752L5.57621 2.04019L5.56621 2.03456C5.28996 1.88456 5.02746 2.25831 5.25371 2.47581L17.8243 14.4958L21.6125 10.8752Z" fill="#050505"/>
<path d="M5.25542 29.5242C5.02792 29.7417 5.29042 30.1154 5.56792 29.9654L5.57792 29.9598L21.6129 21.1248L17.8248 17.5029L5.25542 29.5242Z" fill="#050505"/>
<path d="M28.0862 14.4379L23.6081 11.9717L19.3975 16.0004L23.6081 20.0273L28.0862 17.5629C29.3043 16.8898 29.3043 15.1111 28.0862 14.4379Z" fill="#050505"/>
</svg>
