<svg width="118" height="24" viewBox="0 0 118 24" fill="none" xmlns="http://www.w3.org/2000/svg">
<path d="M63.3597 1.49474H67.4166V22.9935L53.713 10.3623V22.3419H49.6561V0.897551L63.3597 13.5473V1.49474ZM43.2418 11.9548C43.2418 18.1616 38.1436 23.2112 31.8768 23.2112C25.6086 23.2112 20.5104 18.1616 20.5104 11.9548C20.5104 5.74809 25.6086 0.698486 31.8768 0.698486C38.1436 0.698486 43.2418 5.74809 43.2418 11.9548ZM39.0765 11.9548C39.0765 7.97358 35.8411 4.73416 31.858 4.73416C27.8749 4.73416 24.6583 7.97358 24.6583 11.9548C24.6583 15.9361 27.8923 19.1755 31.858 19.1755C35.8411 19.1755 39.075 15.9361 39.075 11.9548H39.0765ZM13.5855 12.1353C12.5066 11.3204 11.082 10.6702 8.98052 10C4.8687 8.69679 4.8687 7.6843 4.8687 7.17733C4.8687 6.01876 6.16602 4.82438 8.3586 4.82438C10.2041 4.82438 11.6301 5.72947 12.1595 6.1276L12.4516 6.34528L15.7231 4.15415L15.3572 3.73885C15.2488 3.61139 12.7264 0.698486 8.34126 0.698486C6.23834 0.698486 4.30319 1.36871 2.89595 2.58028C1.48871 3.79326 0.68457 5.4588 0.68457 7.19451C0.68457 9.04193 1.50751 10.5972 3.11435 11.8102C4.19328 12.6236 5.61788 13.2752 7.71935 13.944C11.8312 15.2301 11.8312 16.2612 11.8312 16.7681C11.8312 17.9267 10.5338 19.1211 8.34126 19.1211C6.49578 19.1211 5.06974 18.216 4.54039 17.8179L4.24824 17.6002L0.976717 19.7913L1.34264 20.2066C1.45256 20.3326 3.97489 23.2284 8.34126 23.2284C10.4427 23.2284 12.3793 22.5596 13.7866 21.3466C15.1938 20.1336 15.9965 18.4509 15.9965 16.7323C15.9965 14.9035 15.1938 13.3669 13.5855 12.1353ZM73.8671 12.0451C73.8671 5.83834 78.9653 0.788748 85.2335 0.788748C91.5003 0.788748 96.5985 5.83834 96.5985 12.0451C96.5985 18.2518 91.5003 23.3014 85.2335 23.3014C78.9653 23.3014 73.8671 18.2518 73.8671 12.0451ZM78.015 12.0451C78.015 16.0263 81.249 19.2658 85.2147 19.2658C89.1978 19.2658 92.4144 16.0263 92.4144 12.0451C92.4144 8.06384 89.1804 4.82298 85.2147 4.82298C81.249 4.82298 78.015 8.06241 78.015 12.0437V12.0451ZM103.506 11.8446C104.583 12.6609 106.008 13.3111 108.111 13.9813C112.221 15.2845 112.221 16.297 112.221 16.804C112.221 17.9625 110.924 19.1569 108.731 19.1569C106.886 19.1569 105.461 18.2518 104.931 17.8537L104.638 17.6375L101.368 19.8271L101.733 20.2425C101.843 20.3699 104.365 23.2642 108.733 23.2642C110.833 23.2642 112.77 22.5954 114.177 21.3824C115.584 20.1708 116.388 18.5053 116.388 16.7682C116.388 14.9222 115.565 13.3655 113.958 12.1539C112.879 11.3391 111.455 10.6875 109.353 10.0187C105.242 8.71545 105.242 7.70152 105.242 7.19455C105.242 6.03741 106.539 4.84304 108.731 4.84304C110.577 4.84304 112.003 5.74813 112.532 6.14625L112.824 6.3625L116.096 4.17281L115.73 3.7575C115.62 3.63004 113.098 0.735762 108.731 0.735762C106.63 0.735762 104.693 1.40455 103.286 2.61611C101.879 3.82911 101.076 5.51182 101.076 7.23179C101.094 9.07777 101.898 10.633 103.506 11.846V11.8446Z" fill="white"/>
</svg>
