<svg width="1920" height="270" viewBox="0 0 1920 270" fill="none" xmlns="http://www.w3.org/2000/svg">
<g clip-path="url(#clip0_610_65)">
<g filter="url(#filter0_b_610_65)">
<path d="M1039.1 24.5121H1105.64V377.078L880.896 169.935V366.392H814.364V14.7186L1039.1 222.167V24.5121ZM709.169 196.051C709.169 297.838 625.559 380.648 522.783 380.648C419.984 380.648 336.374 297.838 336.374 196.051C336.374 94.2644 419.984 11.4541 522.783 11.4541C625.559 11.4541 709.169 94.2644 709.169 196.051ZM640.857 196.051C640.857 130.761 587.798 77.6366 522.475 77.6366C457.152 77.6366 404.4 130.761 404.4 196.051C404.4 261.341 457.437 314.465 522.475 314.465C587.798 314.465 640.834 261.341 640.834 196.051H640.857ZM222.806 199.01C205.112 185.647 181.748 174.984 147.284 163.993C79.8502 142.621 79.8502 126.017 79.8502 117.703C79.8502 98.7032 101.126 79.1161 137.085 79.1161C167.35 79.1161 190.738 93.959 199.419 100.488L204.21 104.058L257.863 68.1248L251.862 61.3141C250.083 59.2239 208.717 11.4541 136.8 11.4541C102.312 11.4541 70.5759 22.4454 47.4971 42.3143C24.4184 62.2065 11.2305 89.5203 11.2305 117.985C11.2305 148.281 24.7267 173.787 51.0788 193.679C68.7732 207.019 92.1368 217.705 126.601 228.673C194.035 249.763 194.035 266.672 194.035 274.986C194.035 293.986 172.758 313.573 136.8 313.573C106.534 313.573 83.1472 298.73 74.4659 292.201L69.6747 288.631L16.0217 324.564L22.0228 331.375C23.8254 333.442 65.1918 380.93 136.8 380.93C171.264 380.93 203.024 369.962 226.103 350.07C249.182 330.177 262.346 302.582 262.346 274.399C262.346 244.408 249.182 219.208 222.806 199.01ZM1211.42 197.531C1211.42 95.7445 1295.03 12.9343 1397.83 12.9343C1500.61 12.9343 1584.22 95.7445 1584.22 197.531C1584.22 299.318 1500.61 382.128 1397.83 382.128C1295.03 382.128 1211.42 299.318 1211.42 197.531ZM1279.45 197.531C1279.45 262.821 1332.49 315.946 1397.52 315.946C1462.85 315.946 1515.6 262.821 1515.6 197.531C1515.6 132.241 1462.56 79.0932 1397.52 79.0932C1332.49 79.0932 1279.45 132.218 1279.45 197.508V197.531ZM1697.5 194.243C1715.17 207.63 1738.54 218.292 1773.02 229.284C1840.43 250.656 1840.43 267.26 1840.43 275.574C1840.43 294.574 1819.16 314.161 1783.2 314.161C1752.93 314.161 1729.57 299.318 1720.87 292.789L1716.07 289.242L1662.44 325.152L1668.42 331.963C1670.22 334.053 1711.59 381.517 1783.22 381.517C1817.66 381.517 1849.42 370.55 1872.5 350.657C1895.58 330.788 1908.77 303.475 1908.77 274.987C1908.77 244.714 1895.27 219.185 1868.92 199.316C1851.23 185.953 1827.86 175.267 1793.4 164.299C1725.96 142.927 1725.96 126.299 1725.96 117.985C1725.96 99.009 1747.24 79.4221 1783.2 79.4221C1813.47 79.4221 1836.85 94.265 1845.53 100.794L1850.32 104.34L1903.98 68.4309L1897.98 61.62C1896.17 59.5298 1854.81 12.0654 1783.2 12.0654C1748.74 12.0654 1716.98 23.0331 1693.9 42.902C1670.82 62.7943 1657.65 90.3898 1657.65 118.596C1657.94 148.869 1671.13 174.374 1697.5 194.267V194.243Z" fill="#F1F1F1"/>
</g>
</g>
<defs>
<filter id="filter0_b_610_65" x="-18.7695" y="-18.5459" width="1957.54" height="430.674" filterUnits="userSpaceOnUse" color-interpolation-filters="sRGB">
<feFlood flood-opacity="0" result="BackgroundImageFix"/>
<feGaussianBlur in="BackgroundImageFix" stdDeviation="15"/>
<feComposite in2="SourceAlpha" operator="in" result="effect1_backgroundBlur_610_65"/>
<feBlend mode="normal" in="SourceGraphic" in2="effect1_backgroundBlur_610_65" result="shape"/>
</filter>
<clipPath id="clip0_610_65">
<rect width="1920" height="270" fill="white"/>
</clipPath>
</defs>
</svg>
