<svg width="32" height="33" viewBox="0 0 32 33" fill="none" xmlns="http://www.w3.org/2000/svg">
<g clip-path="url(#clip0_582_215)">
<path d="M16 0.300293C7.16352 0.300293 0 7.46381 0 16.3003C0 23.8037 5.16608 30.1 12.135 31.8293V21.1899H8.83584V16.3003H12.135V14.1934C12.135 8.74765 14.5997 6.22349 19.9462 6.22349C20.96 6.22349 22.7091 6.42253 23.4246 6.62093V11.0529C23.047 11.0133 22.391 10.9934 21.5763 10.9934C18.953 10.9934 17.9392 11.9873 17.9392 14.571V16.3003H23.1654L22.2675 21.1899H17.9392V32.1832C25.8618 31.2264 32.0006 24.4808 32.0006 16.3003C32 7.46381 24.8365 0.300293 16 0.300293Z" fill="white"/>
</g>
<defs>
<clipPath id="clip0_582_215">
<rect width="32" height="32" fill="white" transform="translate(0 0.300293)"/>
</clipPath>
</defs>
</svg>
