<svg width="32" height="33" viewBox="0 0 32 33" fill="none" xmlns="http://www.w3.org/2000/svg">
<g clip-path="url(#clip0_582_217)">
<path d="M16 3.18154C20.275 3.18154 20.7813 3.20029 22.4625 3.27529C24.025 3.34404 24.8688 3.60654 25.4313 3.82529C26.175 4.11279 26.7125 4.46279 27.2688 5.01904C27.8313 5.58154 28.175 6.11279 28.4625 6.85654C28.6813 7.41904 28.9438 8.26904 29.0125 9.82529C29.0875 11.5128 29.1063 12.019 29.1063 16.2878C29.1063 20.5628 29.0875 21.069 29.0125 22.7503C28.9438 24.3128 28.6813 25.1565 28.4625 25.719C28.175 26.4628 27.825 27.0003 27.2688 27.5565C26.7063 28.119 26.175 28.4628 25.4313 28.7503C24.8688 28.969 24.0188 29.2315 22.4625 29.3003C20.775 29.3753 20.2688 29.394 16 29.394C11.725 29.394 11.2188 29.3753 9.5375 29.3003C7.975 29.2315 7.13125 28.969 6.56875 28.7503C5.825 28.4628 5.2875 28.1128 4.73125 27.5565C4.16875 26.994 3.825 26.4628 3.5375 25.719C3.31875 25.1565 3.05625 24.3065 2.9875 22.7503C2.9125 21.0628 2.89375 20.5565 2.89375 16.2878C2.89375 12.0128 2.9125 11.5065 2.9875 9.82529C3.05625 8.26279 3.31875 7.41904 3.5375 6.85654C3.825 6.11279 4.175 5.57529 4.73125 5.01904C5.29375 4.45654 5.825 4.11279 6.56875 3.82529C7.13125 3.60654 7.98125 3.34404 9.5375 3.27529C11.2188 3.20029 11.725 3.18154 16 3.18154ZM16 0.300293C11.6563 0.300293 11.1125 0.319043 9.40625 0.394043C7.70625 0.469043 6.5375 0.744043 5.525 1.13779C4.46875 1.55029 3.575 2.09404 2.6875 2.98779C1.79375 3.87529 1.25 4.76904 0.8375 5.81904C0.44375 6.83779 0.16875 8.00029 0.09375 9.70029C0.01875 11.4128 0 11.9565 0 16.3003C0 20.644 0.01875 21.1878 0.09375 22.894C0.16875 24.594 0.44375 25.7628 0.8375 26.7753C1.25 27.8315 1.79375 28.7253 2.6875 29.6128C3.575 30.5003 4.46875 31.0503 5.51875 31.4565C6.5375 31.8503 7.7 32.1253 9.4 32.2003C11.1063 32.2753 11.65 32.294 15.9938 32.294C20.3375 32.294 20.8813 32.2753 22.5875 32.2003C24.2875 32.1253 25.4563 31.8503 26.4688 31.4565C27.5188 31.0503 28.4125 30.5003 29.3 29.6128C30.1875 28.7253 30.7375 27.8315 31.1438 26.7815C31.5375 25.7628 31.8125 24.6003 31.8875 22.9003C31.9625 21.194 31.9813 20.6503 31.9813 16.3065C31.9813 11.9628 31.9625 11.419 31.8875 9.71279C31.8125 8.01279 31.5375 6.84404 31.1438 5.83154C30.75 4.76904 30.2063 3.87529 29.3125 2.98779C28.425 2.10029 27.5313 1.55029 26.4813 1.14404C25.4625 0.750293 24.3 0.475293 22.6 0.400293C20.8875 0.319043 20.3438 0.300293 16 0.300293Z" fill="white"/>
<path d="M16 8.08154C11.4625 8.08154 7.78125 11.7628 7.78125 16.3003C7.78125 20.8378 11.4625 24.519 16 24.519C20.5375 24.519 24.2188 20.8378 24.2188 16.3003C24.2188 11.7628 20.5375 8.08154 16 8.08154ZM16 21.6315C13.0563 21.6315 10.6687 19.244 10.6687 16.3003C10.6687 13.3565 13.0563 10.969 16 10.969C18.9438 10.969 21.3312 13.3565 21.3312 16.3003C21.3312 19.244 18.9438 21.6315 16 21.6315Z" fill="white"/>
<path d="M26.4625 7.75664C26.4625 8.81914 25.6 9.6754 24.5438 9.6754C23.4813 9.6754 22.625 8.81289 22.625 7.75664C22.625 6.69414 23.4875 5.83789 24.5438 5.83789C25.6 5.83789 26.4625 6.70039 26.4625 7.75664Z" fill="white"/>
</g>
<defs>
<clipPath id="clip0_582_217">
<rect width="32" height="32" fill="white" transform="translate(0 0.300293)"/>
</clipPath>
</defs>
</svg>
