<svg width="32" height="33" viewBox="0 0 32 33" fill="none" xmlns="http://www.w3.org/2000/svg">
<path d="M31.6812 9.9002C31.6812 9.9002 31.3688 7.69395 30.4063 6.7252C29.1875 5.4502 27.825 5.44395 27.2 5.36895C22.725 5.04395 16.0063 5.04395 16.0063 5.04395H15.9937C15.9937 5.04395 9.275 5.04395 4.8 5.36895C4.175 5.44395 2.8125 5.4502 1.59375 6.7252C0.63125 7.69395 0.325 9.9002 0.325 9.9002C0.325 9.9002 0 12.4939 0 15.0814V17.5064C0 20.0939 0.31875 22.6877 0.31875 22.6877C0.31875 22.6877 0.63125 24.8939 1.5875 25.8627C2.80625 27.1377 4.40625 27.0939 5.11875 27.2314C7.68125 27.4752 16 27.5502 16 27.5502C16 27.5502 22.725 27.5377 27.2 27.2189C27.825 27.1439 29.1875 27.1377 30.4063 25.8627C31.3688 24.8939 31.6812 22.6877 31.6812 22.6877C31.6812 22.6877 32 20.1002 32 17.5064V15.0814C32 12.4939 31.6812 9.9002 31.6812 9.9002ZM12.6938 20.4502V11.4564L21.3375 15.9689L12.6938 20.4502Z" fill="white"/>
</svg>
